<?xml version="1.0" encoding="utf-8"?>
<!-- Svg Vector Icons : http://www.onlinewebfonts.com/icon -->
<!DOCTYPE svg PUBLIC "-//W3C//DTD SVG 1.1//EN" "http://www.w3.org/Graphics/SVG/1.1/DTD/svg11.dtd">
<svg version="1.1" xmlns="http://www.w3.org/2000/svg" xmlns:xlink="http://www.w3.org/1999/xlink" x="0px" y="0px" viewBox="0 0 1000 1000" enable-background="new 0 0 1000 1000" xml:space="preserve">
<metadata> Svg Vector Icons : http://www.onlinewebfonts.com/icon </metadata>
<g><g><path d="M846.5,153.5C753.9,61,630.9,10,500,10S246.1,61,153.5,153.5C61,246.1,10,369.1,10,500s51,253.9,143.5,346.5C246.1,939,369.1,990,500,990s253.9-51,346.5-143.5S990,630.9,990,500S939,246.1,846.5,153.5z M824.8,824.8C738.1,911.6,622.7,959.4,500,959.4s-238.1-47.8-324.8-134.5C88.4,738.1,40.6,622.7,40.6,500s47.8-238.1,134.5-324.8C261.9,88.4,377.3,40.6,500,40.6s238.1,47.8,324.8,134.5c86.8,86.8,134.5,202.1,134.5,324.8S911.6,738.1,824.8,824.8z"/><path d="M101.9,500c0-219.5,178.6-398.1,398.1-398.1c79.2,0,155.7,23.2,221.2,67c7,4.7,16.5,2.8,21.2-4.2c4.7-7,2.8-16.5-4.2-21.2C667.6,96.2,585.3,71.3,500,71.3c-114.5,0-222.2,44.6-303.2,125.6c-81,81-125.6,188.6-125.6,303.2c0,105.7,38.8,207.2,109.2,285.8c3,3.4,7.2,5.1,11.4,5.1c3.6,0,7.3-1.3,10.2-3.9c6.3-5.6,6.8-15.3,1.2-21.6C137.9,692.4,101.9,598.1,101.9,500z"/><path d="M856.5,261.8c-4.7-7-14.2-8.9-21.2-4.2s-8.9,14.2-4.2,21.2c43.9,65.5,67,142,67,221.2c0,219.5-178.6,398.1-398.1,398.1c-91.1,0-180.1-31.5-250.7-88.8c-6.6-5.3-16.2-4.3-21.5,2.2c-5.3,6.6-4.3,16.2,2.2,21.5c76,61.7,171.9,95.7,270,95.7c114.5,0,222.2-44.6,303.2-125.6c81-81,125.6-188.6,125.6-303.2C928.8,414.7,903.8,332.4,856.5,261.8z"/><path d="M765.4,203.2c10.3,9.2,20.2,19.1,29.5,29.3c3,3.3,7.2,5,11.3,5c3.7,0,7.4-1.3,10.3-4c6.3-5.7,6.7-15.4,1-21.6c-10-11-20.7-21.6-31.8-31.5c-6.3-5.6-16-5.1-21.6,1.2C758.6,187.9,759.1,197.6,765.4,203.2z"/><path d="M500,209.1c8.5,0,15.3-6.9,15.3-15.3v-45.9c0-8.5-6.9-15.3-15.3-15.3c-8.5,0-15.3,6.9-15.3,15.3v45.9C484.7,202.2,491.5,209.1,500,209.1z"/><path d="M484.7,806.3v45.9c0,8.5,6.9,15.3,15.3,15.3c8.5,0,15.3-6.9,15.3-15.3v-45.9c0-8.5-6.9-15.3-15.3-15.3C491.5,790.9,484.7,797.8,484.7,806.3z"/><path d="M209.1,500c0-8.5-6.9-15.3-15.3-15.3h-45.9c-8.5,0-15.3,6.9-15.3,15.3c0,8.5,6.9,15.3,15.3,15.3h45.9C202.2,515.3,209.1,508.5,209.1,500z"/><path d="M790.9,500c0,8.5,6.9,15.3,15.3,15.3h45.9c8.5,0,15.3-6.9,15.3-15.3c0-8.5-6.9-15.3-15.3-15.3h-45.9C797.8,484.7,790.9,491.5,790.9,500z"/><path d="M360.1,227.1l-23-39.8c-4.2-7.3-13.6-9.8-20.9-5.6c-7.3,4.2-9.8,13.6-5.6,20.9l23,39.8c2.8,4.9,8,7.7,13.3,7.7c2.6,0,5.2-0.7,7.6-2.1C361.9,243.8,364.4,234.4,360.1,227.1z"/><path d="M666.4,757.6c-4.2-7.3-13.6-9.8-20.9-5.6c-7.3,4.2-9.8,13.6-5.6,20.9l23,39.8c2.8,4.9,8,7.7,13.3,7.7c2.6,0,5.2-0.7,7.6-2.1c7.3-4.2,9.8-13.6,5.6-20.9L666.4,757.6z"/><path d="M195,691.4c2.6,0,5.2-0.7,7.6-2.1l39.8-23c7.3-4.2,9.8-13.6,5.6-20.9s-13.6-9.8-20.9-5.6l-39.8,23c-7.3,4.2-9.8,13.6-5.6,20.9C184.6,688.7,189.7,691.4,195,691.4z"/><path d="M765.2,362.2c2.6,0,5.2-0.7,7.6-2.1l39.8-23c7.3-4.2,9.8-13.6,5.6-20.9s-13.6-9.8-20.9-5.6l-39.8,23c-7.3,4.2-9.8,13.6-5.6,20.9C754.8,359.4,759.9,362.2,765.2,362.2z"/><path d="M683.8,181.7c-7.3-4.2-16.7-1.7-20.9,5.6l-23,39.8c-4.2,7.3-1.7,16.7,5.6,20.9c2.4,1.4,5,2.1,7.6,2.1c5.3,0,10.4-2.7,13.3-7.7l23-39.8C693.6,195.3,691.1,186,683.8,181.7z"/><path d="M354.5,752c-7.3-4.2-16.7-1.7-20.9,5.6l-23,39.8c-4.2,7.3-1.7,16.7,5.6,20.9c2.4,1.4,5,2.1,7.6,2.1c5.3,0,10.4-2.7,13.3-7.7l23-39.8C364.4,765.6,361.9,756.2,354.5,752z"/><path d="M757.6,666.4l39.8,23c2.4,1.4,5,2.1,7.6,2.1c5.3,0,10.4-2.7,13.3-7.7c4.2-7.3,1.7-16.7-5.6-20.9l-39.8-23c-7.3-4.2-16.7-1.7-20.9,5.6C747.7,652.8,750.2,662.2,757.6,666.4z"/><path d="M242.4,333.6l-39.8-23c-7.3-4.2-16.7-1.7-20.9,5.6s-1.7,16.7,5.6,20.9l39.8,23c2.4,1.4,5,2.1,7.6,2.1c5.3,0,10.4-2.7,13.3-7.7C252.3,347.2,249.8,337.8,242.4,333.6z"/><path d="M606.6,699.9c2.6,0,5.2-0.7,7.6-2.1c7.3-4.2,9.8-13.6,5.6-20.9l-84.9-147.1c6.9-8,11-18.4,11-29.8c0-20-12.8-37-30.6-43.3V255c0-8.5-6.9-15.3-15.3-15.3c-8.5,0-15.3,6.9-15.3,15.3v201.7c-17.8,6.3-30.6,23.3-30.6,43.3c0,25.3,20.6,45.9,45.9,45.9c2.9,0,5.7-0.3,8.4-0.8l84.9,147.1C596.2,697.2,601.3,699.9,606.6,699.9z M484.7,500c0-8.4,6.9-15.3,15.3-15.3c8.4,0,15.3,6.9,15.3,15.3c0,8.4-6.9,15.3-15.3,15.3C491.6,515.3,484.7,508.4,484.7,500z"/></g><g></g><g></g><g></g><g></g><g></g><g></g><g></g><g></g><g></g><g></g><g></g><g></g><g></g><g></g><g></g></g>
</svg>
