<?xml version="1.0" encoding="utf-8"?>
<!-- Generator: Adobe Illustrator 26.0.3, SVG Export Plug-In . SVG Version: 6.00 Build 0)  -->
<svg version="1.0" id="katman_1" xmlns="http://www.w3.org/2000/svg" xmlns:xlink="http://www.w3.org/1999/xlink" x="0px" y="0px"
	 viewBox="0 0 306 210" style="enable-background:new 0 0 306 210;" xml:space="preserve">
<style type="text/css">
	.st0{fill:#262A38;}
	.st1{fill:#FF694A;}
</style>
<path class="st0" d="M272.4,134.5l-0.5,1.3h-0.2l-0.5-1.3v1.3h-0.3V134h0.4l0.5,1.4l0.5-1.4h0.4v1.8h-0.3V134.5z M270.7,134.3h-0.5
	v1.6h-0.3v-1.6h-0.5V134h1.3V134.3z"/>
<path class="st0" d="M186.1,73.9v61.4h-12.5v-6.3c-1.3,2.2-3.2,4-5.5,5.1c-2.4,1.2-5.2,1.9-8,1.9c-3.4,0.1-6.8-0.9-9.7-2.8
	c-2.9-2-5.2-4.6-6.7-7.8c-1.6-3.7-2.4-7.6-2.4-11.6c-0.1-4,0.7-7.9,2.4-11.5c1.5-3.1,3.7-5.8,6.6-7.6c2.9-1.9,6.3-2.8,9.8-2.7
	c2.7,0,5.4,0.6,7.7,1.8c2.3,1.1,4.2,2.8,5.5,5V78.1L186.1,73.9z M171.1,123.2c1.6-2.1,2.5-5.2,2.5-9.2c0-4-0.8-7-2.5-9.1
	c-1.7-2.1-4.4-3.3-7.2-3.3c-2.8-0.2-5.5,1.1-7.2,3.2c-1.7,2.1-2.6,5.1-2.6,9c0,4,0.9,7.1,2.6,9.3c1.7,2.2,4.5,3.4,7.2,3.3
	C167.1,126.5,169.5,125.3,171.1,123.2z"/>
<path class="st0" d="M230.6,94.7c2.9,1.9,5.2,4.6,6.6,7.6c1.6,3.6,2.4,7.5,2.4,11.5c0.1,4-0.7,8-2.4,11.6c-1.5,3.2-3.7,5.9-6.7,7.8
	c-2.8,1.9-6.3,2.8-9.7,2.8c-2.8,0.1-5.5-0.6-8-1.9c-2.3-1.1-4.2-2.9-5.4-5.1v6.3H195V78.1l12.6-4.2V99c1.2-2.2,3.1-4,5.4-5.1
	c2.4-1.3,5.1-2,7.9-1.9C224.3,91.9,227.7,92.9,230.6,94.7z M224.4,123.1c1.7-2.2,2.5-5.3,2.5-9.4c0-3.9-0.8-6.9-2.5-9
	c-1.7-2.1-4.1-3.2-7.2-3.2c-2.8-0.2-5.5,1.1-7.2,3.3c-1.7,2.2-2.5,5.2-2.5,9.1c0,4,0.8,7.1,2.5,9.2c1.7,2.2,4.4,3.4,7.2,3.3
	C220.1,126.6,222.7,125.3,224.4,123.1z"/>
<path class="st0" d="M257,102.5v16.4c0,2.4,0.7,4.1,1.8,5.1c1.3,1.1,3,1.7,4.8,1.6c1.4,0,2.8-0.2,4.2-0.6v9.8
	c-2.4,0.8-4.8,1.2-7.2,1.1c-5.2,0-9.2-1.5-12-4.4c-2.8-2.9-4.2-7.1-4.2-12.5v-36L257,79v14h10.7v9.4H257z"/>
<path class="st1" d="M118.2,63.7c2.1,2,3.5,4.7,3.8,7.6c0,1.2-0.3,2-1.1,3.6c-0.7,1.5-9.8,17.2-12.5,21.5c-1.5,2.5-2.4,5.5-2.4,8.5
	c0,3,0.8,5.9,2.4,8.5c2.7,4.3,11.7,20,12.5,21.6c0.7,1.5,1.1,2.3,1.1,3.5c-0.3,2.9-1.6,5.6-3.7,7.6c-2,2.1-4.7,3.5-7.6,3.7
	c-1.2,0-2-0.3-3.5-1.1c-1.5-0.7-17.4-9.5-21.7-12.2c-0.3-0.2-0.7-0.4-1.1-0.6l-21.3-12.6c0.5,4.1,2.3,8,5.2,10.8
	c0.6,0.6,1.1,1.1,1.8,1.5c-0.5,0.2-1.1,0.5-1.5,0.8c-4.3,2.7-20,11.7-21.6,12.5c-1.5,0.7-2.3,1.1-3.6,1.1c-2.9-0.3-5.6-1.6-7.6-3.7
	c-2.1-2-3.5-4.7-3.8-7.6c0.1-1.2,0.4-2.4,1.1-3.5c0.7-1.5,9.8-17.3,12.5-21.6c1.5-2.5,2.4-5.5,2.4-8.5c0-3-0.8-5.9-2.4-8.5
	c-2.7-4.5-11.8-20.2-12.5-21.7c-0.7-1.1-1-2.3-1.1-3.5c0.3-2.9,1.6-5.6,3.7-7.6c2-2.1,4.7-3.4,7.6-3.7c1.2,0.1,2.4,0.4,3.6,1.1
	c1.3,0.6,12.8,7.2,18.9,10.8l1.4,0.8c0.5,0.3,0.9,0.6,1.2,0.7l0.7,0.4l21.7,12.9c-0.5-4.9-3-9.4-6.9-12.4c0.5-0.2,1.1-0.5,1.5-0.8
	c4.3-2.7,20-11.8,21.6-12.5c1.1-0.7,2.3-1,3.6-1.1C113.5,60.3,116.1,61.6,118.2,63.7z M78.1,110.8l4.6-4.6c0.7-0.7,0.7-1.6,0-2.3
	l-4.6-4.6c-0.7-0.7-1.6-0.7-2.3,0l-4.6,4.6c-0.7,0.7-0.7,1.6,0,2.3l4.6,4.6C76.4,111.3,77.5,111.3,78.1,110.8z"/>
</svg>
